{
	"asset":{
		"generator":"Khronos glTF Blender I/O v3.5.30",
		"version":"2.0"
	},
	"extensionsUsed":[
		"KHR_materials_emissive_strength"
	],
	"scene":0,
	"scenes":[
		{
			"name":"Scene",
			"nodes":[
				0,
				1,
				2,
				3,
				4,
				5,
				6,
				7,
				8,
				9,
				10,
				11,
				12,
				13
			]
		}
	],
	"nodes":[
		{
			"mesh":0,
			"name":"Plane",
			"scale":[
				1.0235064029693604,
				1,
				1
			],
			"translation":[
				0.058563947677612305,
				0,
				0
			]
		},
		{
			"mesh":1,
			"name":"Plane.001",
			"scale":[
				0.12687145173549652,
				0.2766214609146118,
				1
			],
			"translation":[
				0.8374162316322327,
				0.029381275177001953,
				0
			]
		},
		{
			"mesh":2,
			"name":"Cube"
		},
		{
			"mesh":3,
			"name":"Plane.002",
			"translation":[
				-0.14132291078567505,
				0.08108711242675781,
				-0.3330812454223633
			]
		},
		{
			"mesh":4,
			"name":"Plane.003",
			"rotation":[
				1,
				0,
				0,
				0
			],
			"scale":[
				-0.052903711795806885,
				-1,
				-0.9800000190734863
			],
			"translation":[
				-0.14958131313323975,
				0.21102601289749146,
				-0.3330812454223633
			]
		},
		{
			"mesh":5,
			"name":"Plane.004",
			"scale":[
				1,
				1,
				1.3799996376037598
			],
			"translation":[
				-0.14132291078567505,
				0,
				-0.2340531349182129
			]
		},
		{
			"mesh":6,
			"name":"Plane.005",
			"scale":[
				0.8560094833374023,
				0.7268791198730469,
				0.8839383721351624
			],
			"translation":[
				-0.1730387657880783,
				0.20687896013259888,
				-0.3330812454223633
			]
		},
		{
			"mesh":7,
			"name":"Plane.006",
			"scale":[
				-5.7872490882873535,
				-5.7872490882873535,
				-5.7872490882873535
			],
			"translation":[
				-0.7282458543777466,
				-0.17544829845428467,
				-0.7102727890014648
			]
		},
		{
			"mesh":8,
			"name":"Plane.007",
			"scale":[
				0.1608465164899826,
				0.45523974299430847,
				0.45523974299430847
			],
			"translation":[
				0.7507688999176025,
				0.9711845517158508,
				-0.31591057777404785
			]
		},
		{
			"mesh":9,
			"name":"Cube.001",
			"scale":[
				0.08633649349212646,
				0.08633649349212646,
				0.08633649349212646
			],
			"translation":[
				0.7564520835876465,
				1.09903883934021,
				-0.21946930885314941
			]
		},
		{
			"mesh":10,
			"name":"Sphere",
			"rotation":[
				0,
				0.03756922855973244,
				0,
				0.9992940425872803
			],
			"scale":[
				0.10090157389640808,
				0.16180573403835297,
				0.09223553538322449
			],
			"translation":[
				0.36126548051834106,
				1.4690152406692505,
				0.3019464910030365
			]
		},
		{
			"mesh":11,
			"name":"Cube.002",
			"scale":[
				0.08633649349212646,
				0.08633649349212646,
				0.08633649349212646
			],
			"translation":[
				0.7564520835876465,
				1.09903883934021,
				-0.7385349273681641
			]
		},
		{
			"mesh":12,
			"name":"Sphere.001",
			"scale":[
				0.11061188578605652,
				0.17737717926502228,
				0.10111185908317566
			],
			"translation":[
				0.3798271417617798,
				1.499807357788086,
				-0.2942866086959839
			]
		},
		{
			"mesh":13,
			"name":"Text",
			"rotation":[
				0.0058876750990748405,
				0.7204955220222473,
				-0.6934076547622681,
				0.00611767778173089
			],
			"scale":[
				0.18818677961826324,
				0.18818674981594086,
				0.18818676471710205
			],
			"translation":[
				0.08078788220882416,
				1.039849042892456,
				0.7626528143882751
			]
		}
	],
	"materials":[
		{
			"doubleSided":true,
			"name":"Material.013",
			"pbrMetallicRoughness":{
				"baseColorFactor":[
					0.8000000715255737,
					0.40797245502471924,
					0.08686286211013794,
					1
				],
				"metallicFactor":0,
				"roughnessFactor":0.5
			}
		},
		{
			"doubleSided":true,
			"name":"Material.012",
			"pbrMetallicRoughness":{
				"baseColorFactor":[
					0.31398868560791016,
					0.1470271646976471,
					0.052860699594020844,
					1
				],
				"metallicFactor":0,
				"roughnessFactor":0.5
			}
		},
		{
			"doubleSided":true,
			"name":"Material.001",
			"pbrMetallicRoughness":{
				"baseColorFactor":[
					0.8000000715255737,
					0.1435726135969162,
					0.030581561848521233,
					1
				],
				"metallicFactor":0,
				"roughnessFactor":0.5
			}
		},
		{
			"doubleSided":true,
			"name":"Material.002",
			"pbrMetallicRoughness":{
				"baseColorFactor":[
					0.8000000715255737,
					0.5758727788925171,
					0.08150282502174377,
					1
				],
				"metallicFactor":0,
				"roughnessFactor":0.5
			}
		},
		{
			"doubleSided":true,
			"name":"Material.008",
			"pbrMetallicRoughness":{
				"baseColorFactor":[
					0.8000000715255737,
					0.5507508516311646,
					0.12260930240154266,
					1
				],
				"metallicFactor":0,
				"roughnessFactor":0.5
			}
		},
		{
			"doubleSided":true,
			"name":"Material.005",
			"pbrMetallicRoughness":{
				"baseColorFactor":[
					0.8000000715255737,
					0.5410345792770386,
					0.12825416028499603,
					1
				],
				"metallicFactor":0,
				"roughnessFactor":0.5
			}
		},
		{
			"doubleSided":true,
			"name":"Material.004",
			"pbrMetallicRoughness":{
				"baseColorFactor":[
					0.35153254866600037,
					0.18116407096385956,
					0.07036014646291733,
					1
				],
				"metallicFactor":0,
				"roughnessFactor":0.5
			}
		},
		{
			"doubleSided":true,
			"name":"Material.006",
			"pbrMetallicRoughness":{
				"metallicFactor":0,
				"roughnessFactor":0.5
			}
		},
		{
			"doubleSided":true,
			"name":"Material.007",
			"pbrMetallicRoughness":{
				"baseColorFactor":[
					0.8000000715255737,
					0,
					0.0015396656235679984,
					1
				],
				"metallicFactor":0,
				"roughnessFactor":0.5
			}
		},
		{
			"doubleSided":true,
			"name":"Material.010",
			"pbrMetallicRoughness":{
				"baseColorFactor":[
					0.8000000715255737,
					0.3418632447719574,
					0.10328324139118195,
					1
				],
				"metallicFactor":0,
				"roughnessFactor":0.5
			}
		},
		{
			"doubleSided":true,
			"name":"Material.009",
			"pbrMetallicRoughness":{
				"baseColorFactor":[
					0.030736934393644333,
					0.8000000715255737,
					0.026180850341916084,
					1
				],
				"metallicFactor":0,
				"roughnessFactor":0.5
			}
		},
		{
			"doubleSided":true,
			"emissiveFactor":[
				1,
				0.6303410530090332,
				0.22786130011081696
			],
			"extensions":{
				"KHR_materials_emissive_strength":{
					"emissiveStrength":3
				}
			},
			"name":"Material.011",
			"pbrMetallicRoughness":{
				"baseColorFactor":[
					0,
					0,
					0,
					1
				]
			}
		}
	],
	"meshes":[
		{
			"name":"Plane",
			"primitives":[
				{
					"attributes":{
						"POSITION":0,
						"TEXCOORD_0":1,
						"NORMAL":2
					},
					"indices":3,
					"material":0
				}
			]
		},
		{
			"name":"Plane.002",
			"primitives":[
				{
					"attributes":{
						"POSITION":4,
						"TEXCOORD_0":5,
						"NORMAL":6
					},
					"indices":3,
					"material":1
				}
			]
		},
		{
			"name":"Cube.001",
			"primitives":[
				{
					"attributes":{
						"POSITION":7,
						"TEXCOORD_0":8,
						"NORMAL":9
					},
					"indices":10,
					"material":2
				},
				{
					"attributes":{
						"POSITION":11,
						"TEXCOORD_0":12,
						"NORMAL":13
					},
					"indices":14,
					"material":3
				}
			]
		},
		{
			"name":"Plane.003",
			"primitives":[
				{
					"attributes":{
						"POSITION":15,
						"TEXCOORD_0":16,
						"NORMAL":17
					},
					"indices":18,
					"material":4
				}
			]
		},
		{
			"name":"Plane.004",
			"primitives":[
				{
					"attributes":{
						"POSITION":19,
						"TEXCOORD_0":20,
						"NORMAL":21
					},
					"indices":22,
					"material":5
				}
			]
		},
		{
			"name":"Plane.005",
			"primitives":[
				{
					"attributes":{
						"POSITION":23,
						"TEXCOORD_0":24,
						"NORMAL":25
					},
					"indices":26,
					"material":6
				}
			]
		},
		{
			"name":"Plane.001",
			"primitives":[
				{
					"attributes":{
						"POSITION":27,
						"TEXCOORD_0":28,
						"NORMAL":29
					},
					"indices":18,
					"material":7
				},
				{
					"attributes":{
						"POSITION":30,
						"TEXCOORD_0":31,
						"NORMAL":32
					},
					"indices":33,
					"material":8
				}
			]
		},
		{
			"name":"Plane.006",
			"primitives":[
				{
					"attributes":{
						"POSITION":34,
						"TEXCOORD_0":35,
						"NORMAL":36
					},
					"indices":3
				}
			]
		},
		{
			"name":"Plane.007",
			"primitives":[
				{
					"attributes":{
						"POSITION":37,
						"TEXCOORD_0":38,
						"NORMAL":39
					},
					"indices":40
				}
			]
		},
		{
			"name":"Cube",
			"primitives":[
				{
					"attributes":{
						"POSITION":41,
						"TEXCOORD_0":42,
						"NORMAL":43
					},
					"indices":44,
					"material":9
				}
			]
		},
		{
			"name":"Sphere",
			"primitives":[
				{
					"attributes":{
						"POSITION":45,
						"TEXCOORD_0":46,
						"NORMAL":47
					},
					"indices":48,
					"material":10
				}
			]
		},
		{
			"name":"Cube.002",
			"primitives":[
				{
					"attributes":{
						"POSITION":49,
						"TEXCOORD_0":50,
						"NORMAL":51
					},
					"indices":44,
					"material":9
				}
			]
		},
		{
			"name":"Sphere.001",
			"primitives":[
				{
					"attributes":{
						"POSITION":52,
						"TEXCOORD_0":53,
						"NORMAL":54
					},
					"indices":48,
					"material":10
				}
			]
		},
		{
			"name":"Text",
			"primitives":[
				{
					"attributes":{
						"POSITION":55,
						"TEXCOORD_0":56,
						"NORMAL":57
					},
					"indices":58,
					"material":11
				}
			]
		}
	],
	"accessors":[
		{
			"bufferView":0,
			"componentType":5126,
			"count":4,
			"max":[
				1,
				0,
				1
			],
			"min":[
				-1,
				0,
				-1
			],
			"type":"VEC3"
		},
		{
			"bufferView":1,
			"componentType":5126,
			"count":4,
			"type":"VEC2"
		},
		{
			"bufferView":2,
			"componentType":5126,
			"count":4,
			"type":"VEC3"
		},
		{
			"bufferView":3,
			"componentType":5123,
			"count":6,
			"type":"SCALAR"
		},
		{
			"bufferView":4,
			"componentType":5126,
			"count":4,
			"max":[
				-12.297343254089355,
				0,
				1
			],
			"min":[
				-14.297343254089355,
				0,
				-1
			],
			"type":"VEC3"
		},
		{
			"bufferView":5,
			"componentType":5126,
			"count":4,
			"type":"VEC2"
		},
		{
			"bufferView":6,
			"componentType":5126,
			"count":4,
			"type":"VEC3"
		},
		{
			"bufferView":7,
			"componentType":5126,
			"count":96,
			"max":[
				1.225312352180481,
				1.8043136596679688,
				1.171451210975647
			],
			"min":[
				-1.117590069770813,
				-0.19568634033203125,
				-1.171451210975647
			],
			"type":"VEC3"
		},
		{
			"bufferView":8,
			"componentType":5126,
			"count":96,
			"type":"VEC2"
		},
		{
			"bufferView":9,
			"componentType":5126,
			"count":96,
			"type":"VEC3"
		},
		{
			"bufferView":10,
			"componentType":5123,
			"count":240,
			"type":"SCALAR"
		},
		{
			"bufferView":11,
			"componentType":5126,
			"count":24,
			"max":[
				1.053861141204834,
				1.3622819185256958,
				1
			],
			"min":[
				-0.9461387991905212,
				0.2463454008102417,
				-1
			],
			"type":"VEC3"
		},
		{
			"bufferView":12,
			"componentType":5126,
			"count":24,
			"type":"VEC2"
		},
		{
			"bufferView":13,
			"componentType":5126,
			"count":24,
			"type":"VEC3"
		},
		{
			"bufferView":14,
			"componentType":5123,
			"count":36,
			"type":"SCALAR"
		},
		{
			"bufferView":15,
			"componentType":5126,
			"count":24,
			"max":[
				0.634776771068573,
				0.1769474446773529,
				0.5429992079734802
			],
			"min":[
				-0.634776771068573,
				0.036309003829956055,
				-0.3245008587837219
			],
			"type":"VEC3"
		},
		{
			"bufferView":16,
			"componentType":5126,
			"count":24,
			"type":"VEC2"
		},
		{
			"bufferView":17,
			"componentType":5126,
			"count":24,
			"type":"VEC3"
		},
		{
			"bufferView":18,
			"componentType":5123,
			"count":36,
			"type":"SCALAR"
		},
		{
			"bufferView":19,
			"componentType":5126,
			"count":222,
			"max":[
				11.76944351196289,
				0.40285900235176086,
				0.6018677949905396
			],
			"min":[
				10.304754257202148,
				0.02510508894920349,
				-0.3901921212673187
			],
			"type":"VEC3"
		},
		{
			"bufferView":20,
			"componentType":5126,
			"count":222,
			"type":"VEC2"
		},
		{
			"bufferView":21,
			"componentType":5126,
			"count":222,
			"type":"VEC3"
		},
		{
			"bufferView":22,
			"componentType":5123,
			"count":408,
			"type":"SCALAR"
		},
		{
			"bufferView":23,
			"componentType":5126,
			"count":2056,
			"max":[
				-0.4919661283493042,
				0.6633793115615845,
				-0.302023321390152
			],
			"min":[
				-0.6818797588348389,
				0.021762501448392868,
				-0.3881508708000183
			],
			"type":"VEC3"
		},
		{
			"bufferView":24,
			"componentType":5126,
			"count":2056,
			"type":"VEC2"
		},
		{
			"bufferView":25,
			"componentType":5126,
			"count":2056,
			"type":"VEC3"
		},
		{
			"bufferView":26,
			"componentType":5123,
			"count":3018,
			"type":"SCALAR"
		},
		{
			"bufferView":27,
			"componentType":5126,
			"count":24,
			"max":[
				0.634776771068573,
				0.1769474446773529,
				0.5429992079734802
			],
			"min":[
				-0.634776771068573,
				0.036309003829956055,
				-0.3245008587837219
			],
			"type":"VEC3"
		},
		{
			"bufferView":28,
			"componentType":5126,
			"count":24,
			"type":"VEC2"
		},
		{
			"bufferView":29,
			"componentType":5126,
			"count":24,
			"type":"VEC3"
		},
		{
			"bufferView":30,
			"componentType":5126,
			"count":12,
			"max":[
				0.3308577835559845,
				0.18669340014457703,
				0.5745166540145874
			],
			"min":[
				-0.5518701076507568,
				0.08526060730218887,
				-0.33895406126976013
			],
			"type":"VEC3"
		},
		{
			"bufferView":31,
			"componentType":5126,
			"count":12,
			"type":"VEC2"
		},
		{
			"bufferView":32,
			"componentType":5126,
			"count":12,
			"type":"VEC3"
		},
		{
			"bufferView":33,
			"componentType":5123,
			"count":18,
			"type":"SCALAR"
		},
		{
			"bufferView":34,
			"componentType":5126,
			"count":4,
			"max":[
				1,
				0,
				1
			],
			"min":[
				-1,
				0,
				-1
			],
			"type":"VEC3"
		},
		{
			"bufferView":35,
			"componentType":5126,
			"count":4,
			"type":"VEC2"
		},
		{
			"bufferView":36,
			"componentType":5126,
			"count":4,
			"type":"VEC3"
		},
		{
			"bufferView":37,
			"componentType":5126,
			"count":24,
			"max":[
				1,
				0.08089383691549301,
				1.1652815341949463
			],
			"min":[
				-1,
				0,
				-0.8347185254096985
			],
			"type":"VEC3"
		},
		{
			"bufferView":38,
			"componentType":5126,
			"count":24,
			"type":"VEC2"
		},
		{
			"bufferView":39,
			"componentType":5126,
			"count":24,
			"type":"VEC3"
		},
		{
			"bufferView":40,
			"componentType":5123,
			"count":36,
			"type":"SCALAR"
		},
		{
			"bufferView":41,
			"componentType":5126,
			"count":88,
			"max":[
				0.7276566028594971,
				0.6207450032234192,
				3.4410364627838135
			],
			"min":[
				-1.272343397140503,
				-1.1465322971343994,
				1.4410364627838135
			],
			"type":"VEC3"
		},
		{
			"bufferView":42,
			"componentType":5126,
			"count":88,
			"type":"VEC2"
		},
		{
			"bufferView":43,
			"componentType":5126,
			"count":88,
			"type":"VEC3"
		},
		{
			"bufferView":44,
			"componentType":5123,
			"count":132,
			"type":"SCALAR"
		},
		{
			"bufferView":45,
			"componentType":5126,
			"count":1984,
			"max":[
				4.491997241973877,
				-1.017079472541809,
				-2.324180841445923
			],
			"min":[
				3.480757236480713,
				-2.631007671356201,
				-3.335421562194824
			],
			"type":"VEC3"
		},
		{
			"bufferView":46,
			"componentType":5126,
			"count":1984,
			"type":"VEC2"
		},
		{
			"bufferView":47,
			"componentType":5126,
			"count":1984,
			"type":"VEC3"
		},
		{
			"bufferView":48,
			"componentType":5123,
			"count":2880,
			"type":"SCALAR"
		},
		{
			"bufferView":49,
			"componentType":5126,
			"count":88,
			"max":[
				0.7276566028594971,
				0.6207450032234192,
				3.4410364627838135
			],
			"min":[
				-1.272343397140503,
				-1.1465322971343994,
				1.4410364627838135
			],
			"type":"VEC3"
		},
		{
			"bufferView":50,
			"componentType":5126,
			"count":88,
			"type":"VEC2"
		},
		{
			"bufferView":51,
			"componentType":5126,
			"count":88,
			"type":"VEC3"
		},
		{
			"bufferView":52,
			"componentType":5126,
			"count":1984,
			"max":[
				3.678699016571045,
				-1.017079472541809,
				-1.7213366031646729
			],
			"min":[
				2.6674587726593018,
				-2.631007671356201,
				-2.732577323913574
			],
			"type":"VEC3"
		},
		{
			"bufferView":53,
			"componentType":5126,
			"count":1984,
			"type":"VEC2"
		},
		{
			"bufferView":54,
			"componentType":5126,
			"count":1984,
			"type":"VEC3"
		},
		{
			"bufferView":55,
			"componentType":5126,
			"count":930,
			"max":[
				2.2829999923706055,
				0,
				2.009000062942505
			],
			"min":[
				0.07400000095367432,
				0,
				-0.6820000410079956
			],
			"type":"VEC3"
		},
		{
			"bufferView":56,
			"componentType":5126,
			"count":930,
			"type":"VEC2"
		},
		{
			"bufferView":57,
			"componentType":5126,
			"count":930,
			"type":"VEC3"
		},
		{
			"bufferView":58,
			"componentType":5123,
			"count":2730,
			"type":"SCALAR"
		}
	],
	"bufferViews":[
		{
			"buffer":0,
			"byteLength":48,
			"byteOffset":0,
			"target":34962
		},
		{
			"buffer":0,
			"byteLength":32,
			"byteOffset":48,
			"target":34962
		},
		{
			"buffer":0,
			"byteLength":48,
			"byteOffset":80,
			"target":34962
		},
		{
			"buffer":0,
			"byteLength":12,
			"byteOffset":128,
			"target":34963
		},
		{
			"buffer":0,
			"byteLength":48,
			"byteOffset":140,
			"target":34962
		},
		{
			"buffer":0,
			"byteLength":32,
			"byteOffset":188,
			"target":34962
		},
		{
			"buffer":0,
			"byteLength":48,
			"byteOffset":220,
			"target":34962
		},
		{
			"buffer":0,
			"byteLength":1152,
			"byteOffset":268,
			"target":34962
		},
		{
			"buffer":0,
			"byteLength":768,
			"byteOffset":1420,
			"target":34962
		},
		{
			"buffer":0,
			"byteLength":1152,
			"byteOffset":2188,
			"target":34962
		},
		{
			"buffer":0,
			"byteLength":480,
			"byteOffset":3340,
			"target":34963
		},
		{
			"buffer":0,
			"byteLength":288,
			"byteOffset":3820,
			"target":34962
		},
		{
			"buffer":0,
			"byteLength":192,
			"byteOffset":4108,
			"target":34962
		},
		{
			"buffer":0,
			"byteLength":288,
			"byteOffset":4300,
			"target":34962
		},
		{
			"buffer":0,
			"byteLength":72,
			"byteOffset":4588,
			"target":34963
		},
		{
			"buffer":0,
			"byteLength":288,
			"byteOffset":4660,
			"target":34962
		},
		{
			"buffer":0,
			"byteLength":192,
			"byteOffset":4948,
			"target":34962
		},
		{
			"buffer":0,
			"byteLength":288,
			"byteOffset":5140,
			"target":34962
		},
		{
			"buffer":0,
			"byteLength":72,
			"byteOffset":5428,
			"target":34963
		},
		{
			"buffer":0,
			"byteLength":2664,
			"byteOffset":5500,
			"target":34962
		},
		{
			"buffer":0,
			"byteLength":1776,
			"byteOffset":8164,
			"target":34962
		},
		{
			"buffer":0,
			"byteLength":2664,
			"byteOffset":9940,
			"target":34962
		},
		{
			"buffer":0,
			"byteLength":816,
			"byteOffset":12604,
			"target":34963
		},
		{
			"buffer":0,
			"byteLength":24672,
			"byteOffset":13420,
			"target":34962
		},
		{
			"buffer":0,
			"byteLength":16448,
			"byteOffset":38092,
			"target":34962
		},
		{
			"buffer":0,
			"byteLength":24672,
			"byteOffset":54540,
			"target":34962
		},
		{
			"buffer":0,
			"byteLength":6036,
			"byteOffset":79212,
			"target":34963
		},
		{
			"buffer":0,
			"byteLength":288,
			"byteOffset":85248,
			"target":34962
		},
		{
			"buffer":0,
			"byteLength":192,
			"byteOffset":85536,
			"target":34962
		},
		{
			"buffer":0,
			"byteLength":288,
			"byteOffset":85728,
			"target":34962
		},
		{
			"buffer":0,
			"byteLength":144,
			"byteOffset":86016,
			"target":34962
		},
		{
			"buffer":0,
			"byteLength":96,
			"byteOffset":86160,
			"target":34962
		},
		{
			"buffer":0,
			"byteLength":144,
			"byteOffset":86256,
			"target":34962
		},
		{
			"buffer":0,
			"byteLength":36,
			"byteOffset":86400,
			"target":34963
		},
		{
			"buffer":0,
			"byteLength":48,
			"byteOffset":86436,
			"target":34962
		},
		{
			"buffer":0,
			"byteLength":32,
			"byteOffset":86484,
			"target":34962
		},
		{
			"buffer":0,
			"byteLength":48,
			"byteOffset":86516,
			"target":34962
		},
		{
			"buffer":0,
			"byteLength":288,
			"byteOffset":86564,
			"target":34962
		},
		{
			"buffer":0,
			"byteLength":192,
			"byteOffset":86852,
			"target":34962
		},
		{
			"buffer":0,
			"byteLength":288,
			"byteOffset":87044,
			"target":34962
		},
		{
			"buffer":0,
			"byteLength":72,
			"byteOffset":87332,
			"target":34963
		},
		{
			"buffer":0,
			"byteLength":1056,
			"byteOffset":87404,
			"target":34962
		},
		{
			"buffer":0,
			"byteLength":704,
			"byteOffset":88460,
			"target":34962
		},
		{
			"buffer":0,
			"byteLength":1056,
			"byteOffset":89164,
			"target":34962
		},
		{
			"buffer":0,
			"byteLength":264,
			"byteOffset":90220,
			"target":34963
		},
		{
			"buffer":0,
			"byteLength":23808,
			"byteOffset":90484,
			"target":34962
		},
		{
			"buffer":0,
			"byteLength":15872,
			"byteOffset":114292,
			"target":34962
		},
		{
			"buffer":0,
			"byteLength":23808,
			"byteOffset":130164,
			"target":34962
		},
		{
			"buffer":0,
			"byteLength":5760,
			"byteOffset":153972,
			"target":34963
		},
		{
			"buffer":0,
			"byteLength":1056,
			"byteOffset":159732,
			"target":34962
		},
		{
			"buffer":0,
			"byteLength":704,
			"byteOffset":160788,
			"target":34962
		},
		{
			"buffer":0,
			"byteLength":1056,
			"byteOffset":161492,
			"target":34962
		},
		{
			"buffer":0,
			"byteLength":23808,
			"byteOffset":162548,
			"target":34962
		},
		{
			"buffer":0,
			"byteLength":15872,
			"byteOffset":186356,
			"target":34962
		},
		{
			"buffer":0,
			"byteLength":23808,
			"byteOffset":202228,
			"target":34962
		},
		{
			"buffer":0,
			"byteLength":11160,
			"byteOffset":226036,
			"target":34962
		},
		{
			"buffer":0,
			"byteLength":7440,
			"byteOffset":237196,
			"target":34962
		},
		{
			"buffer":0,
			"byteLength":11160,
			"byteOffset":244636,
			"target":34962
		},
		{
			"buffer":0,
			"byteLength":5460,
			"byteOffset":255796,
			"target":34963
		}
	],
	"buffers":[
		{
			"byteLength":261256,
			"uri":"data:application/octet-stream;base64,"
		}
	]
}
